<?xml version="1.0" encoding="iso-8859-1"?>
<!-- Generator: Adobe Illustrator 19.0.0, SVG Export Plug-In . SVG Version: 6.00 Build 0)  -->
<svg version="1.1" id="Capa_1" xmlns="http://www.w3.org/2000/svg" xmlns:xlink="http://www.w3.org/1999/xlink" x="0px" y="0px"
	 viewBox="0 0 512 512" style="enable-background:new 0 0 512 512;" xml:space="preserve">
<path style="fill:#E6E7E8;" d="M219.033,364.607h-20.599c-45.215,0-82.001,36.786-82.001,82v7.938
	c8.757-4.272,19.06-4.284,27.816-0.05v-7.888c0-29.877,24.307-54.184,54.184-54.184h20.599
	C218.988,391.312,219.002,365.371,219.033,364.607z"/>
<path style="fill:#D9DADB;" d="M130.39,446.607c0-45.215,36.786-82,82.001-82h-13.957c-45.215,0-82.001,36.786-82.001,82v7.938
	c4.216-2.057,8.951-3.214,13.957-3.214L130.39,446.607L130.39,446.607z"/>
<path style="fill:#E6E7E8;" d="M367.751,446.607v8.153c8.601-4.355,18.871-4.624,27.816-0.458v-7.696c0-45.215-36.786-82-82.001-82
	h-20.599c0.049,1.208,0.012,7.513,0.026,27.301c0,0.174-0.019,0.343-0.026,0.515h20.599
	C343.444,392.423,367.751,416.73,367.751,446.607z"/>
<path style="fill:#D9DADB;" d="M382.351,446.607c0-29.877-24.307-54.184-54.184-54.184h-14.6c29.877,0,54.184,24.307,54.184,54.184
	v8.153c4.432-2.244,9.367-3.459,14.6-3.423V446.607z"/>
<path style="fill:#C0C0C0;" d="M242.092,270.942v43.77c8.463-5.443,19.338-5.453,27.816,0v-43.77H242.092z"/>
<path style="fill:#AFB1B2;" d="M256,270.942h-13.908v43.77c4.012-2.58,8.783-4.083,13.908-4.083V270.942z"/>
<path style="fill:#E6E7E8;" d="M230.244,355.849v-22.556c0-14.224,11.531-25.756,25.756-25.756
	c14.225,0,25.756,11.532,25.756,25.756v22.556H230.244z"/>
<path style="fill:#D9DADB;" d="M268.878,310.992c-17.02-9.85-38.634,2.393-38.634,22.301v22.556H256v-22.556
	C256,323.763,261.182,315.446,268.878,310.992z"/>
<path style="fill:#C0C0C0;" d="M283.721,352.759c-60.289,0-56.162-0.111-57.926,0.252c-5.647,1.164-9.879,6.188-9.879,12.111v26.786
	c0,5.95,4.26,10.953,9.879,12.111c0.803,0.165,1.634,0.252,2.483,0.252h13.813c6.418,0,30.632,0,41.629,0
	c0.85,0,1.681-0.087,2.483-0.252c5.62-1.158,9.879-6.161,9.879-12.111v-26.786C296.084,358.313,290.514,352.759,283.721,352.759z"/>
<path style="fill:#AFB1B2;" d="M257.001,391.908c0.022-28.014-0.053-26.904,0.064-28.045c0.635-6.204,5.915-11.103,12.299-11.103
	c-44.994,0-41.847-0.102-43.568,0.252c-5.647,1.164-9.879,6.188-9.879,12.111v26.786c0,5.95,4.26,10.953,9.879,12.111
	c0.803,0.165,1.634,0.252,2.483,0.252h13.813h27.272C262.566,404.27,257.001,398.709,257.001,391.908z"/>
<path style="fill:#E6E7E8;" d="M269.908,454.52v-62.612c0-7.682-6.227-13.908-13.908-13.908c-7.681,0-13.908,6.227-13.908,13.908
	v62.612C250.659,450.359,260.963,450.175,269.908,454.52z"/>
<path style="fill:#D9DADB;" d="M256,391.908c0-5.145,2.801-9.627,6.954-12.032c-9.176-5.315-20.862,1.263-20.862,12.032v62.612
	c6.915-3.358,12.473-3.019,13.908-3.188V391.908z"/>
<path style="fill:#E6E7E8;" d="M186.17,316.573c-1.984,0-3.966-0.759-5.476-2.276c-3.011-3.024-2.999-7.917,0.025-10.927
	l12.29-12.234c1.448-1.442,3.408-2.251,5.451-2.251h43.633c4.267,0,7.727,3.459,7.727,7.727c0,4.268-3.459,7.727-7.727,7.727H201.65
	l-10.029,9.983C190.114,315.823,188.141,316.573,186.17,316.573z"/>
<path style="fill:#D83D3D;" d="M189.074,0c-22.343,0-39.187,20.306-35.057,42.264l26.684,141.905
	c3.171,16.863,17.899,29.08,35.057,29.08c2.674,0,83.353,0,80.742,0c17.159,0,31.886-12.216,35.057-29.08l26.684-141.905
	C362.371,20.306,345.528,0,323.185,0C318.69,0,184.809,0,189.074,0z"/>
<path style="fill:#C43131;" d="M239.306,184.169L212.622,42.264C208.493,20.306,225.336,0,247.679,0h-58.605
	c-22.343,0-39.187,20.306-35.057,42.264l26.684,141.905c3.171,16.863,17.899,29.08,35.057,29.08c7.045,0,51.567,0,58.605,0
	C257.205,213.249,242.477,201.032,239.306,184.169z"/>
<rect x="144.5" y="213.25" style="fill:#B72C2C;" width="223.25" height="60.784"/>
<rect x="144.5" y="213.25" style="fill:#A52626;" width="27.87" height="60.784"/>
<path style="fill:#D83D3D;" d="M409.201,138.042h-30.907c-6.8,0-12.363,5.563-12.363,12.363c0,35.55,0,76.966,0,111.265v12.363
	c15.375,0,27.019,0,43.27,0c6.8,0,12.363-5.563,12.363-12.363V150.404C421.563,143.605,416,138.042,409.201,138.042z"/>
<path style="fill:#C43131;" d="M391.686,150.404c0-6.8,5.563-12.363,12.363-12.363h-25.756c-6.8,0-12.363,5.563-12.363,12.363
	c0,35.55,0,76.966,0,111.265v12.363c8.96,0,16.615,0,25.756,0C391.686,245.912,391.686,177.687,391.686,150.404z"/>
<path style="fill:#D83D3D;" d="M102.8,138.042h30.907c6.8,0,12.363,5.563,12.363,12.363c0,24.841,0,98.804,0,123.628
	c-8.942,0-34.317,0-43.27,0c-6.8,0-12.363-5.563-12.363-12.363V150.404C90.437,143.605,96,138.042,102.8,138.042z"/>
<path style="fill:#C43131;" d="M116.193,261.67V150.404c0-6.8,5.563-12.363,12.363-12.363H102.8c-6.8,0-12.363,5.563-12.363,12.363
	V261.67c0,6.8,5.563,12.363,12.363,12.363c8.952,0,16.831,0,25.756,0C121.756,274.033,116.193,268.469,116.193,261.67z"/>
<path style="fill:#7F7369;" d="M160.522,348.638c3.549,0,7.098-1.35,9.812-4.052l15.87-15.799
	c5.444-5.419,5.464-14.225,0.044-19.669c-5.419-5.443-14.225-5.463-19.669-0.044l-15.87,15.799
	c-5.444,5.419-5.464,14.225-0.044,19.669C153.383,347.271,156.952,348.638,160.522,348.638z"/>
<path style="fill:#706359;" d="M160.696,332.085l15.87-15.799c3.307-3.292,7.853-4.564,12.129-3.845
	c-0.63-1.194-1.444-2.316-2.446-3.323c-5.419-5.443-14.225-5.463-19.669-0.044l-15.87,15.799
	c-5.444,5.419-5.464,14.225-0.044,19.669c2.127,2.137,4.778,3.426,7.541,3.89C155.427,343.169,156.258,336.502,160.696,332.085z"/>
<g>
	<circle style="fill:#7F7369;" cx="130.39" cy="480.12" r="31.877"/>
	<circle style="fill:#7F7369;" cx="256" cy="480.12" r="31.877"/>
	<circle style="fill:#7F7369;" cx="382.13" cy="480.12" r="31.877"/>
</g>
<g>
	<path style="fill:#706359;" d="M130.166,480.247c-5.925-10.263-5.487-22.446,0.077-32.003c-24.314,0.09-39.73,26.558-27.459,47.812
		c8.803,15.247,28.298,20.471,43.545,11.668c4.984-2.877,8.889-6.902,11.591-11.542C146.861,496.222,136.091,490.51,130.166,480.247
		z"/>
	<path style="fill:#706359;" d="M255.853,448.244c-24.314,0.09-39.73,26.558-27.459,47.812c8.803,15.247,28.298,20.47,43.545,11.668
		c4.984-2.877,8.889-6.902,11.591-11.542C258.889,496.272,243.426,469.586,255.853,448.244z"/>
	<path style="fill:#706359;" d="M381.981,448.244c-24.314,0.09-39.73,26.558-27.459,47.812
		c12.261,21.237,42.892,21.153,55.136,0.125C385.018,496.272,369.555,469.586,381.981,448.244z"/>
</g>
<g>
</g>
<g>
</g>
<g>
</g>
<g>
</g>
<g>
</g>
<g>
</g>
<g>
</g>
<g>
</g>
<g>
</g>
<g>
</g>
<g>
</g>
<g>
</g>
<g>
</g>
<g>
</g>
<g>
</g>
</svg>
