<svg viewBox="0 -27 512 512" xmlns="http://www.w3.org/2000/svg"><path d="m308.964844 90.042969c7.25 125.6875 85.972656 129.914062 113.875 127.414062 2.5-.226562 4.980468.609375 6.816406 2.316407 1.84375 1.703124 2.867188 4.101562 2.832031 6.609374-1.84375 125.078126-37.074219 189.792969-53.476562 213.25-1.675781 2.433594-2.019531 5.542969-.917969 8.289063 1.105469 2.742187 3.503906 4.757813 6.390625 5.355469 127.515625 26.847656 127.515625-57.238282 127.515625-57.238282-44.136719 8.996094-26.484375-63.007812-26.484375-162.019531s-61.792969-234.019531-132.414063-234.019531c-70.617187 0-97.101562 18-97.101562 18s-26.484375-18-97.101562-18c-70.621094 0-132.414063 135.007812-132.414063 234.019531s17.652344 171.015625-26.484375 162.019531c0 0 0 84.085938 127.53125 57.203126 2.894531-.597657 5.296875-2.613282 6.390625-5.355469 1.105469-2.746094.75-5.855469-.917969-8.289063-16.398437-23.464844-51.71875-88.347656-53.484375-213.761718-.042969-2.472657.953125-4.847657 2.753907-6.550782 1.792968-1.703125 4.21875-2.566406 6.683593-2.398437 42.378907 3.070312 212.285157 7 220.007813-126.84375zm0 0" fill="#f0c419"/><path d="m97.101562 167.722656c-4.871093.144532-8.941406-3.699218-9.082031-8.570312s3.699219-8.941406 8.570313-9.082032c56.984375-3.355468 97.988281-17.851562 118.699218-41.933593 9.292969-9.921875 14.414063-23.039063 14.28125-36.632813-.460937-4.828125 3.0625-9.128906 7.890626-9.621094 2.3125-.257812 4.625.421876 6.445312 1.878907 1.808594 1.457031 2.976562 3.574219 3.222656 5.886719.660156 18.1875-5.773437 35.921874-17.957031 49.4375-24.082031 28.554687-68.332031 44.914062-131.53125 48.628906-.191406.007812-.371094.007812-.539063.007812zm0 0" fill="#f3d55b"/></svg>