<?xml version="1.0" encoding="iso-8859-1"?>
<!-- Generator: Adobe Illustrator 16.0.0, SVG Export Plug-In . SVG Version: 6.00 Build 0)  -->
<!DOCTYPE svg PUBLIC "-//W3C//DTD SVG 1.1//EN" "http://www.w3.org/Graphics/SVG/1.1/DTD/svg11.dtd">
<svg version="1.1" id="Capa_1" xmlns="http://www.w3.org/2000/svg" xmlns:xlink="http://www.w3.org/1999/xlink" x="0px" y="0px"
	 width="32.003px" height="32.003px" viewBox="0 0 32.003 32.003" style="enable-background:new 0 0 32.003 32.003;"
	 xml:space="preserve">
<g>
	<g>
		<path d="M13.891,11.526c1.872-0.081,2.463-0.945,2.638-1.341c0.176,0.396,0.767,1.26,2.638,1.341
			c0.79-0.076,2.068-0.091,2.068-1.278c-0.763,0.549-2.129,0.259-2.389-0.79c-0.196-1.004-1.918-1.599-2.317-0.845
			c-0.399-0.754-2.121-0.159-2.318,0.845c-0.259,1.049-1.626,1.339-2.387,0.79C11.822,11.437,13.101,11.451,13.891,11.526z"/>
		<path d="M31.001,16.648c0.009-0.208,0.032-0.414,0.032-0.626c0-0.188-0.021-0.371-0.028-0.558
			c0.075-0.362,0.256-0.732,0.432-1.074c0.172-0.382,0.351-0.724,0.39-0.918c0.158-0.641-0.215-1.027-0.625-1.276
			c-0.292-0.182-0.601-0.3-0.793-0.433c-0.11-0.367-0.24-0.727-0.376-1.082c-0.039-0.383-0.002-0.803,0.032-1.187
			c0.049-0.424,0.114-0.809,0.095-1.008c-0.183-1.126-1.37-1.011-1.927-1.15c-0.223-0.311-0.449-0.617-0.694-0.909
			c-0.367-0.692-0.399-1.772-0.598-2.094c-0.502-1.039-1.618-0.507-2.183-0.471c-0.311-0.224-0.632-0.432-0.96-0.629
			c-0.548-0.577-0.966-1.521-1.238-1.804c-0.452-0.478-0.99-0.354-1.413-0.171c-0.31,0.135-0.577,0.333-0.798,0.431
			c-0.386-0.114-0.775-0.218-1.174-0.303c-0.691-0.349-1.362-1.124-1.706-1.271c-0.586-0.268-1.05-0.029-1.391,0.285
			c-0.248,0.249-0.437,0.525-0.612,0.69c-0.396,0.016-0.79,0.039-1.177,0.085c-0.776-0.088-1.683-0.637-2.058-0.646
			c-0.646-0.082-1.013,0.28-1.221,0.727c-0.157,0.311-0.248,0.632-0.364,0.838c-0.363,0.142-0.714,0.299-1.061,0.467
			C8.803,2.706,7.789,2.54,7.403,2.616C6.755,2.731,6.565,3.25,6.489,3.704C6.431,4.04,6.452,4.377,6.415,4.614
			c-0.303,0.258-0.6,0.521-0.881,0.802c-0.667,0.397-1.712,0.52-2.01,0.74C2.54,6.754,3.147,7.812,3.236,8.375
			C3.038,8.707,2.854,9.043,2.68,9.392C2.441,9.678,2.091,9.92,1.784,10.146C1.448,10.4,1.126,10.616,1,10.767
			c-0.451,0.487-0.283,1.013-0.054,1.422c0.173,0.299,0.377,0.547,0.487,0.754c-0.081,0.384-0.135,0.775-0.186,1.168
			c-0.315,0.726-0.979,1.478-1.146,1.835c-0.366,1.07,0.708,1.537,1.136,1.925c0.05,0.402,0.105,0.807,0.188,1.2
			c-0.038,0.771-0.503,1.696-0.479,2.063c-0.036,1.15,1.179,1.22,1.701,1.451c0.17,0.348,0.352,0.687,0.548,1.019
			c0.113,0.357,0.125,0.782,0.145,1.166c0.028,0.42,0.034,0.807,0.09,0.996c0.162,0.644,0.693,0.788,1.16,0.822
			c0.347,0.021,0.667-0.019,0.903,0.005c0.276,0.275,0.569,0.533,0.864,0.786c0.448,0.646,0.689,1.657,0.914,1.972
			c0.389,0.515,0.911,0.525,1.362,0.409c0.338-0.101,0.639-0.257,0.871-0.314c0.349,0.173,0.705,0.333,1.068,0.479
			c0.306,0.211,0.58,0.521,0.824,0.826c0.276,0.325,0.523,0.609,0.685,0.727c0.262,0.19,0.521,0.25,0.759,0.23
			c0.242-0.038,0.464-0.154,0.661-0.292c0.284-0.195,0.515-0.434,0.713-0.559c0.385,0.048,0.776,0.074,1.17,0.094
			c0.752,0.252,1.56,0.87,1.931,0.986c0.626,0.223,1.039-0.158,1.322-0.521c0.205-0.271,0.351-0.562,0.495-0.748
			c0.394-0.081,0.776-0.188,1.157-0.298c0.783-0.016,1.747,0.325,2.13,0.312c0.644-0.046,0.938-0.478,1.086-0.918
			c0.102-0.338,0.134-0.677,0.212-0.903c0.324-0.193,0.644-0.395,0.951-0.609c0.351-0.155,0.772-0.223,1.173-0.26
			c0.422-0.057,0.797-0.104,0.982-0.176c0.62-0.223,0.746-0.737,0.726-1.223c-0.008-0.347-0.08-0.673-0.072-0.907
			c0.243-0.288,0.471-0.588,0.692-0.895c0.135-0.113,0.281-0.221,0.448-0.312c0.182-0.118,0.379-0.221,0.57-0.315
			c0.383-0.188,0.742-0.345,0.896-0.471c0.841-0.767,0.103-1.695-0.086-2.238c0.142-0.363,0.278-0.729,0.394-1.104
			c0.381-0.677,1.258-1.285,1.412-1.626C32.386,17.739,31.353,17.101,31.001,16.648z M16.072,29.334
			c-7.34,0-13.312-5.974-13.312-13.312c0-7.339,5.973-13.31,13.312-13.31c7.339,0,13.311,5.972,13.311,13.311
			C29.382,23.362,23.412,29.334,16.072,29.334z"/>
		<path d="M16.162,3.432c-6.932,0-12.571,5.64-12.571,12.571c0,6.931,5.639,12.569,12.571,12.569
			c6.931,0,12.571-5.639,12.571-12.569C28.733,9.071,23.092,3.432,16.162,3.432z M16.162,27.769
			c-6.487,0-11.767-5.277-11.767-11.767c0-6.487,5.279-11.766,11.767-11.766s11.766,5.278,11.766,11.766
			C27.927,22.491,22.65,27.769,16.162,27.769z"/>
		<g>
			<polygon points="23.657,13.702 23.977,12.967 16.528,16.407 17.456,17.017 			"/>
			<path d="M14.921,17.366l-4.174,2.009l-0.013-0.032c-0.024-0.028-0.046-0.057-0.072-0.084c-0.526-0.547-1.45-0.62-2.192-0.175
				c-0.411,0.247-0.716,0.62-0.861,1.046c-0.148,0.439-0.106,0.89,0.115,1.26c0.056,0.094,0.122,0.178,0.194,0.256
				c0.404,0.419,1.039,0.56,1.646,0.402c0.262-0.061,0.535-0.161,0.729-0.353c0.319-0.238,0.558-0.562,0.679-0.923
				c0.078-0.231,0.097-0.463,0.071-0.687l-0.025-0.063l4.711-1.937L14.921,17.366z M10.511,20.62
				c-0.106,0.315-0.338,0.596-0.651,0.782c-0.549,0.328-1.218,0.289-1.589-0.096c-0.05-0.051-0.093-0.106-0.129-0.167
				c-0.147-0.248-0.172-0.553-0.072-0.854c0.107-0.319,0.338-0.598,0.651-0.785c0.55-0.328,1.219-0.288,1.591,0.097
				c0.048,0.051,0.092,0.108,0.127,0.167C10.588,20.01,10.612,20.314,10.511,20.62z"/>
			<path d="M25.406,20.317c-0.092-0.056-1.341,0.011-1.649-0.521c-0.079-0.209-0.194-0.411-0.345-0.589
				c-0.554-0.666-1.448-0.901-2.126-0.56c-0.018,0.01-0.036,0.021-0.055,0.03l-4.006-1.508l-6.821-4.296l0.184,0.667l6.104,4.973
				l0.797-0.38l3.14,1.207c-0.086,0.189-0.133,0.405-0.136,0.633c-0.005,0.451,0.162,0.904,0.468,1.273
				c0.556,0.664,1.448,0.897,2.127,0.559c0.097-0.048,0.186-0.108,0.269-0.177c0.186-0.153,0.323-0.351,0.412-0.574
				c0.425-0.484,1.217-0.279,1.396-0.297C25.345,20.739,25.504,20.375,25.406,20.317z M16.889,17.909
				c-0.127,0.062-0.279,0.012-0.343-0.114c-0.062-0.125-0.013-0.278,0.113-0.341c0.126-0.064,0.279-0.015,0.344,0.11
				C17.067,17.69,17.014,17.844,16.889,17.909z M23.042,21.255c-0.055,0.045-0.112,0.084-0.175,0.116
				c-0.479,0.239-1.124,0.057-1.533-0.438c-0.233-0.28-0.357-0.619-0.354-0.956c0.003-0.318,0.128-0.597,0.35-0.781
				c0.054-0.045,0.115-0.084,0.177-0.113c0.479-0.243,1.123-0.061,1.533,0.433c0.232,0.281,0.359,0.621,0.354,0.955
				C23.388,20.792,23.263,21.07,23.042,21.255z"/>
		</g>
	</g>
</g>
<g>
</g>
<g>
</g>
<g>
</g>
<g>
</g>
<g>
</g>
<g>
</g>
<g>
</g>
<g>
</g>
<g>
</g>
<g>
</g>
<g>
</g>
<g>
</g>
<g>
</g>
<g>
</g>
<g>
</g>
</svg>
