<svg viewBox="-17 0 511 511.99546" xmlns="http://www.w3.org/2000/svg"><path d="m476.273438 200.136719c-5.472657-73.089844-35.398438-128.171875-76.972657-161.539063-64.351562-51.464844-146.976562-51.464844-205.941406 0-58.96875 51.460938-95.601563-38.5742185-95.601563-38.5742185-28.777343 61.1718745-33.984374 102.1289065-26.570312 129.5820315l-.617188 1.765625c-10.734374-3.742188-20.671874-9.460938-29.304687-16.859375-5.121094-4.414063-27.628906-26.304688-24.71875-35.042969-53.757813 158.890625 44.753906 255.988281 44.753906 255.988281-9.796875-97.011719 38.3125-138.941406 62.675781-153.59375.792969-.441406 1.5-.882812 2.207032-1.234375.707031-.355468 1.324218-.796875 1.941406-1.148437 21.511719 4.226562 43.625 4.492187 65.234375.792969 231.628906-64.4375 267.90625 155.183593 267.90625 155.183593 12.6875-43.921875 17.753906-89.691406 15.007813-135.320312zm0 0" fill="#cb9080"/><path d="m399.300781 38.589844c-39.484375-33.421875-92.582031-45.929688-142.828125-33.632813-23.375 6.125-44.992187 17.644531-63.113281 33.632813-59.054687 51.550781-95.601563-38.5781252-95.601563-38.5781252-28.777343 61.1757812-33.984374 102.1328122-26.570312 129.5859372l-.617188 1.765625c15.890626 5.359375 32.75 7.246094 49.433594 5.5625.617188-.089843 1.324219-.089843 1.941406-.179687 38.046876-3.265625 77.503907-20.035156 109.28125-33.71875 8.652344-3.089844 17.125-5.648438 25.246094-7.679688 121.90625-31.335937 186.433594 43.605469 217.859375 104.957032l1.941407-.175782c-5.472657-73.082031-35.398438-128.164062-76.972657-161.539062zm0 0" fill="#d1d4d1"/><path d="m476.273438 200.128906-1.941407.175782c-31.425781-61.351563-95.953125-136.292969-217.859375-104.957032-8.121094 2.03125-16.59375 4.589844-25.246094 7.679688-31.777343 13.683594-71.234374 30.453125-109.28125 33.71875-.617187.089844-1.324218.089844-1.941406.179687-16.683594 1.683594-33.535156-.203125-49.433594-5.5625-10.734374-3.742187-20.671874-9.464843-29.304687-16.859375-5.121094-4.414062-27.628906-26.304687-24.71875-35.046875-53.757813 158.894531 44.753906 255.992188 44.753906 255.992188-9.796875-97.011719 38.3125-138.941407 62.675781-153.59375.792969-.441407 1.5-.792969 2.207032-1.234375.707031-.441406 1.324218-.796875 1.941406-1.148438 21.511719 4.226563 43.625 4.492188 65.234375.792969 20.59375-5.894531 41.742187-9.648437 63.113281-11.210937 175.3125-11.914063 204.792969 166.394531 204.792969 166.394531 12.6875-43.914063 17.753906-89.683594 15.007813-135.320313zm0 0" fill="#5e5f62"/><path d="m260.886719 480.226562c80.328125 77.421876 172.132812-11.015624 172.132812-11.035156-2.761719 2.703125-20.179687-1.765625-23.773437-2.578125-8.21875-1.789062-16.074219-4.941406-23.242188-9.339843-12.507812-8.851563-22.269531-21.050782-28.175781-35.191407-6.753906-13.78125-14.035156-32.863281-29.5625-39.574219-28.847656-12.464843-60.847656 17.320313-67.378906 42.433594 1.6875-6.472656-10.105469-20.734375-13.839844-24.972656-16.726563-19.003906-49.503906-29.128906-67.34375-6.179688-5.976563 9.011719-10.972656 18.636719-14.917969 28.707032-13.375 29.6875-43.511718 48.195312-76.03125 46.695312 0 0 91.804688 88.457032 172.132813 11.035156zm0 0" fill="#2c2f38"/></svg>